Coordinates
version=1
nRows=11
nColumns=40
inDegrees=yes

Units are S.I. units (second, meters, Newtons, ...)
If the header above contains a line with 'inDegrees', this indicates whether rotational values are in degrees (yes) or radians (no).

endheader
time	pelvis_tilt	pelvis_list	pelvis_rotation	pelvis_tx	pelvis_ty	pelvis_tz	hip_flexion_r	hip_adduction_r	hip_rotation_r	knee_angle_r	knee_angle_r_beta	ankle_angle_r	subtalar_angle_r	mtp_angle_r	hip_flexion_l	hip_adduction_l	hip_rotation_l	knee_angle_l	knee_angle_l_beta	ankle_angle_l	subtalar_angle_l	mtp_angle_l	lumbar_extension	lumbar_bending	lumbar_rotation	arm_flex_r	arm_add_r	arm_rot_r	elbow_flex_r	pro_sup_r	wrist_flex_r	wrist_dev_r	arm_flex_l	arm_add_l	arm_rot_l	elbow_flex_l	pro_sup_l	wrist_flex_l	wrist_dev_l
      3.84500000	    -32.52085155	     -0.73201871	     -3.64564180	     -0.40372285	      0.69784549	     -0.89394687	     86.16244879	     -9.08983079	      3.30759344	     90.15546671	      1.57350973	     35.52192023	      0.00000000	      0.00000000	     87.12728183	    -19.91203839	      5.97488451	     90.33588769	      1.57665867	     35.29605913	      0.00000000	      0.00000000	    -18.03094831	      0.78527888	      6.03497044	      9.44923023	    -53.15325765	     78.39043524	     89.59861510	     86.74770773	      0.00000000	      0.00000000	     -8.73880431	    -49.17117864	     48.04182942	     95.54952845	     87.53792604	      0.00000000	      0.00000000
      3.85000000	    -32.46101171	     -0.68663365	     -3.70263689	     -0.40250007	      0.69934209	     -0.89395951	     85.89507622	     -9.03069493	      3.35099028	     89.92562887	      1.56949831	     35.47845613	      0.00000000	      0.00000000	     86.80797134	    -19.88786579	      5.95153664	     90.16207679	      1.57362510	     35.27211528	      0.00000000	      0.00000000	    -17.83001646	      0.76664037	      6.00080223	      9.46385354	    -53.05415314	     78.41677874	     89.57270196	     86.73569310	      0.00000000	      0.00000000	     -8.74804843	    -49.14780355	     48.12440607	     95.50938255	     87.55687199	      0.00000000	      0.00000000
      3.85500000	    -32.38272584	     -0.67318612	     -3.75430419	     -0.40129311	      0.70111173	     -0.89387260	     85.54180033	     -8.92487556	      3.39349051	     89.63058989	      1.56434890	     35.45600918	      0.00000000	      0.00000000	     86.42250019	    -19.88728576	      5.90169765	     89.88202756	      1.56873732	     35.23843424	      0.00000000	      0.00000000	    -17.63503543	      0.76912955	      6.00702708	      9.53182624	    -52.93838266	     78.50790162	     89.40715109	     86.72294265	      0.00000000	      0.00000000	     -8.55817907	    -49.14668124	     48.15705757	     95.38123949	     87.57005872	      0.00000000	      0.00000000
      3.86000000	    -32.04240135	     -0.66135104	     -3.76807609	     -0.39974184	      0.70319339	     -0.89392267	     84.93451003	     -8.88781776	      3.44007387	     89.42386363	      1.56074085	     35.59853380	      0.00000000	      0.00000000	     85.75744618	    -19.87097201	      5.78112937	     89.66677711	      1.56498049	     35.50328978	      0.00000000	      0.00000000	    -17.65594374	      0.79576510	      5.95617358	      9.96336805	    -52.77608491	     79.01090759	     89.08750573	     86.70822694	      0.00000000	      0.00000000	     -7.99097379	    -49.16476703	     48.89652266	     95.07099156	     87.61151531	      0.00000000	      0.00000000
      3.86500000	    -32.05537115	     -0.66561739	     -3.80323701	     -0.39860198	      0.70488803	     -0.89394560	     84.68824206	     -8.79926225	      3.46347146	     89.13773257	      1.55574692	     35.55238328	      0.00000000	      0.00000000	     85.47664444	    -19.77236721	      5.85948590	     89.36234561	      1.55966716	     35.41731709	      0.00000000	      0.00000000	    -17.32750878	      0.84565501	      5.91864847	      9.99730939	    -52.70819186	     79.07282607	     89.09578302	     86.70796419	      0.00000000	      0.00000000	     -7.91629307	    -49.15656796	     48.99293905	     95.06951518	     87.61310873	      0.00000000	      0.00000000
      3.87000000	    -31.97609614	     -0.67753078	     -3.81010802	     -0.39728852	      0.70689302	     -0.89400079	     84.30884628	     -8.71998607	      3.50758111	     88.80764011	      1.54998572	     35.51255617	      0.00000000	      0.00000000	     85.11120622	    -19.71842421	      5.81575069	     89.06859802	      1.55454030	     35.40021767	      0.00000000	      0.00000000	    -17.06879313	      0.90925375	      5.84342679	     10.10889308	    -52.61258851	     79.14930624	     89.02671198	     86.70707022	      0.00000000	      0.00000000	     -7.74179332	    -49.15669538	     49.14126335	     94.97034304	     87.61686499	      0.00000000	      0.00000000
      3.87500000	    -31.71691520	     -0.70644632	     -3.94455402	     -0.39600722	      0.70927696	     -0.89391137	     83.74170744	     -8.50344324	      3.54842176	     88.47285913	      1.54414269	     35.57177342	      0.00000000	      0.00000000	     84.52392475	    -19.78847916	      5.79919247	     88.79960453	      1.54984547	     35.49663667	      0.00000000	      0.00000000	    -16.90374109	      0.96080812	      6.30135810	     10.04866818	    -52.63881375	     79.32983893	     88.88663784	     86.66686622	      0.00000000	      0.00000000	     -5.82715861	    -49.36019367	     51.50031833	     94.61486349	     87.56081972	      0.00000000	      0.00000000
      3.88000000	    -31.65215930	     -0.73417385	     -3.85589402	     -0.39435468	      0.71149838	     -0.89406818	     83.32742905	     -8.53161696	      3.52649679	     88.11900501	      1.53796677	     35.55551488	      0.00000000	      0.00000000	     84.10558329	    -19.59126332	      5.84579230	     88.43768640	      1.54352881	     35.44809111	      0.00000000	      0.00000000	    -16.57829803	      1.08248948	      6.13604118	     10.09271755	    -52.50522247	     79.36358593	     88.69978305	     86.67015194	      0.00000000	      0.00000000	     -5.72023131	    -49.30990297	     51.57763756	     94.48422070	     87.56548881	      0.00000000	      0.00000000
      3.88500000	    -31.53359592	     -0.75752339	     -3.86323391	     -0.39288493	      0.71396319	     -0.89401925	     82.85473540	     -8.43148519	      3.55867801	     87.74816854	      1.53149445	     35.50153675	      0.00000000	      0.00000000	     83.64426424	    -19.51719809	      5.86184980	     88.08793983	      1.53742458	     35.38245311	      0.00000000	      0.00000000	    -16.31931542	      1.13757801	      6.03902636	     10.18736518	    -52.35998970	     79.39532009	     88.61880424	     86.68285973	      0.00000000	      0.00000000	     -5.63489658	    -49.31070436	     51.69221539	     94.40008743	     87.57281288	      0.00000000	      0.00000000
      3.89000000	    -31.19358301	     -0.82350629	     -3.95247314	     -0.39109560	      0.71691432	     -0.89382560	     82.10014722	     -8.23000693	      3.57533448	     87.35192608	      1.52457872	     35.59120112	      0.00000000	      0.00000000	     82.90147758	    -19.57036078	      5.85411488	     87.75168162	      1.53155577	     35.48150129	      0.00000000	      0.00000000	    -16.25639864	      1.22067318	      6.06378606	     10.57565079	    -52.18145102	     79.79871012	     88.21141595	     86.74249204	      0.00000000	      0.00000000	     -5.14183509	    -49.28983712	     52.22531653	     94.11492422	     87.58987624	      0.00000000	      0.00000000
      3.89500000	    -31.14864056	     -0.87812105	     -3.93724922	     -0.38956773	      0.71940803	     -0.89392536	     81.68405650	     -8.14069971	      3.59044321	     86.93847193	      1.51736258	     35.51411295	      0.00000000	      0.00000000	     82.51060758	    -19.47065010	      5.88415992	     87.34084624	      1.52438534	     35.39401363	      0.00000000	      0.00000000	    -15.85322678	      1.34174107	      5.98478938	     10.60290825	    -52.11273077	     79.90590951	     88.20222267	     86.75323350	      0.00000000	      0.00000000	     -5.04867753	    -49.29708204	     52.36152014	     94.13354226	     87.58939438	      0.00000000	      0.00000000
